<svg xmlns="http://www.w3.org/2000/svg" viewBox="0 0 85.06 145.04">
  <defs>
    <style>
      .cls-1 {
        opacity: 0.7;
      }

      .cls-2 {
        fill: #ddbca6;
      }

      .cls-3 {
        fill: #f7ceb2;
      }

      .cls-4 {
        fill: #b57662;
        opacity: 0.4;
      }

      .cls-5 {
        fill: #d39484;
      }

      .cls-6 {
        fill: #fff;
      }

      .cls-7 {
        fill: #c1272d;
      }

      .cls-8 {
        fill: #423907;
      }
    </style>
  </defs>
  <g id="Layer_2" data-name="Layer 2">
    <g id="Layer_1-2" data-name="Layer 1">
      <g>
        <g>
          <g class="cls-1">
            <path class="cls-2" d="M60.25,116.17l-1.07,21.56s.62,6.41-13.7,7.26c-13.11.79-13.1-9.26-13.1-9.26l.84-32.86Z"/>
            <path class="cls-3" d="M38.21,2.58c-25.68,5.86-25,23.5-25,23.5S14,39.7,14.52,55.93A8.44,8.44,0,0,0,4,53.06C-4.74,56.8,1.72,84.34,15,82c.57,7.69,1.32,13.69,2.31,15.76,3.73,7.83,21.55,18.52,36.1,20.38s31.42-6.58,31.42-23.74.22-80.7.22-80.7S80.74-7.12,38.21,2.58Z"/>
            <path class="cls-4" d="M5.18,57.8c4.56-2.31,8.59,5,8.78,12.86-3.73-.56-4.36,3.79-2.28,6.86C4.27,79.09.35,60.25,5.18,57.8Z"/>
            <path class="cls-5" d="M62.27,47.49A53.31,53.31,0,0,1,64.41,54c.6,2.22,1.12,4.46,1.58,6.71s.89,4.51,1.25,6.78.72,4.53,1,6.81l0,.21-.17.08-4.15,2c-1.39.65-2.78,1.32-4.18,2,1.33-.77,2.68-1.5,4-2.25l4-2.2-.14.28-1.16-6.77-1.23-6.76q-.65-3.37-1.37-6.73C63.42,51.93,62.93,49.69,62.27,47.49Z"/>
          </g>
          <path class="cls-6" d="M71.88,97.67c-15.35,6.75-18.78,4.27-27.78-2.25C44.1,95.42,56,76.81,71.88,97.67Z"/>
          <g>
            <path class="cls-7" d="M41.79,54.23c2.2,0,4.62.45,6.63-.14,0,.22-.23-.32-.23-.09,0,3.74-1.66,6.77-3.72,6.77s-3.66-3-3.71-6.61C41.1,54.19,41.44,54.23,41.79,54.23Z"/>
            <path class="cls-7" d="M50.72,54a49.12,49.12,0,0,1-8.11.6,48,48,0,0,1-8.1-.6,48,48,0,0,1,8.1-.6A49.12,49.12,0,0,1,50.72,54Z"/>
          </g>
          <g>
            <path class="cls-7" d="M72.65,53.61a25.57,25.57,0,0,0,6.77-.52c0,.22-.36.06-.36.28,0,3.74-1.67,6.78-3.72,6.78s-3.67-2.95-3.72-6.61C72,53.56,72.3,53.61,72.65,53.61Z"/>
            <path class="cls-7" d="M81.58,53.39a49.08,49.08,0,0,1-8.1.6,49.2,49.2,0,0,1-8.11-.6,47.12,47.12,0,0,1,8.11-.6A48,48,0,0,1,81.58,53.39Z"/>
          </g>
        </g>
        <path class="cls-8" d="M39.56,44.27s11-8.21,16,3"/>
        <path class="cls-8" d="M82.06,43.88s-11-8.21-16,3"/>
      </g>
    </g>
  </g>
</svg>
