<svg xmlns="http://www.w3.org/2000/svg" viewBox="0 0 85.87 159.69">
  <defs>
    <style>
      .cls-1 {
        fill: #e6e6e6;
      }

      .cls-2 {
        opacity: 0.4;
      }
    </style>
  </defs>
  <g id="Layer_2" data-name="Layer 2">
    <g id="Layer_1-2" data-name="Layer 1">
      <g>
        <path class="cls-1" d="M57.05,5.09s16,2.13,21,12.27S56.57,11,56.57,11Z"/>
        <path class="cls-1" d="M60.8,130.55l-1.08,21.76s.63,6.47-13.82,7.33c-13.23.79-13.22-9.35-13.22-9.35l.85-33.16Z"/>
        <path class="cls-1" d="M36.75,9.34C7,15,13.33,45.31,13.33,45.31s.81,8.08,1.32,24.45A8.54,8.54,0,0,0,4,66.87C-4.79,70.64,1.73,98.43,15.14,96c.58,7.76,1.34,13.8,2.33,15.9,3.77,7.9,20.33,19.95,35,21.83s33.13-7.9,33.13-25.22.22-63.81.22-63.81S89.13-.57,36.75,9.34Z"/>
        <path class="cls-1" d="M46.74,68.45c0,3.77-1.68,6.83-3.75,6.83s-3.76-3.06-3.76-6.83,1.69-6.84,3.76-6.84S46.74,64.67,46.74,68.45Z"/>
        <path class="cls-1" d="M78.37,70c0,3.78-1.69,6.84-3.76,6.84S70.86,73.73,70.86,70s1.68-6.83,3.75-6.83S78.37,66.18,78.37,70Z"/>
        <g class="cls-2">
          <path class="cls-1" d="M5.23,71.65c4.6-2.33,8.67,5.08,8.86,13-3.77-.56-4.4,3.82-2.31,6.92C4.31,93.14.35,74.12,5.23,71.65Z"/>
        </g>
        <path class="cls-1" d="M13.62,69.66,16.1,82.88l3.44.5-.09-26.07S29,52,28.89,35.29C28.86,29,26,32,24.8,21.77c-.58-5.13-11.56-10.55-11.64-3.46,0,0-8.81,1.88-7.55,23C6,48.5,7.18,61.72,8.29,66A8.2,8.2,0,0,1,13.62,69.66Z"/>
        <path class="cls-1" d="M67,92.71s14.62-1.89,15.57,6.13-8.5.94-8.5.94-7.07,5.2-12.27,1c0,0-6.29,1.57-11.48-2.2,0,0-10.69,5-9.75-2.21C41.17,91.44,67,92.71,67,92.71Z"/>
        <path class="cls-1" d="M24.8,24S23.23,8.55,48.08,12.33c19.53,3,14.79-5.66,11.33-7.87s-22.65-9.33-38.07,1c-17.93,12-16,31.46-14.79,33C12.14,45.43,24.8,24,24.8,24Z"/>
      </g>
    </g>
  </g>
</svg>
