<svg xmlns="http://www.w3.org/2000/svg" viewBox="0 0 87.42 155.96">
  <defs>
    <style>
      .cls-1 {
        opacity: 0.7;
      }

      .cls-2 {
        fill: #ddbca6;
      }

      .cls-3 {
        fill: #ffccba;
      }

      .cls-4 {
        fill: #564b35;
      }

      .cls-5 {
        fill: #b57662;
        opacity: 0.4;
      }

      .cls-6 {
        fill: #d39484;
      }

      .cls-7 {
        fill: #fff;
      }

      .cls-8 {
        fill: #4d5d61;
      }
    </style>
  </defs>
  <g id="Layer_2" data-name="Layer 2">
    <g id="Layer_1-2" data-name="Layer 1">
      <g>
        <g>
          <g class="cls-1">
            <path class="cls-2" d="M60.25,127.09l-1.07,21.56s.62,6.41-13.7,7.27c-13.11.78-13.1-9.27-13.1-9.27l.84-32.86Z"/>
            <path class="cls-3" d="M38.21,13.5C12.53,19.36,13.21,37,13.21,37s.8,13.61,1.31,29.84A8.44,8.44,0,0,0,4,64c-8.74,3.74-2.28,31.28,11,28.9.57,7.69,1.32,13.68,2.31,15.75,3.73,7.83,21.55,18.52,36.1,20.38s31.42-6.58,31.42-23.74.22-80.7.22-80.7S80.74,3.8,38.21,13.5Z"/>
            <path class="cls-4" d="M67.68,55.06s11-8.21,16,3"/>
            <path class="cls-5" d="M5.18,68.72c4.56-2.31,8.59,5,8.78,12.86-3.73-.55-4.36,3.79-2.28,6.86C4.27,90,.35,71.17,5.18,68.72Z"/>
            <path class="cls-6" d="M62.27,58.41A53.31,53.31,0,0,1,64.41,65c.6,2.22,1.12,4.46,1.58,6.71s.89,4.51,1.25,6.78.72,4.54,1,6.82l0,.2-.17.08-4.15,2c-1.39.66-2.78,1.32-4.18,2,1.33-.78,2.68-1.51,4-2.26l4-2.2-.14.29-1.16-6.78-1.23-6.76q-.65-3.37-1.37-6.73C63.42,62.85,62.93,60.61,62.27,58.41Z"/>
            <path class="cls-4" d="M15,74.2l1.46,6.62c0,3.38-.21,9-1.4,12.06-1.77,4.48-2.29,27.51,26.41,34.13,26,6,49.67,1.44,43.4-34.23,0,0,.55,9.62-3.79,8.41S79.42,92,60,89.86C53.46,89,43.42,90,37.34,96.15c-7.93,8-16.79,2.68-17.59-22V71.8M42.4,98.08c11,1.93,17-.07,17-.07,8,3.42,16.25,4.09,16.24,3.45,1.21,1.44,4.58,12.29-7,16.63S60,109.65,60,109.65l-4.58-.72s1.78,9.9-8.44,8.92C32,116.4,42.4,98.08,42.4,98.08Z"/>
            <path class="cls-4" d="M32.5,57.36s15.27,5,19-7.35"/>
          </g>
          <path class="cls-7" d="M72.88,110.59,45.1,108.34S51.85,88.88,72.88,110.59Z"/>
          <g>
            <path class="cls-8" d="M41.79,65.15c2.2,0,4.62.45,6.63-.14,0,.22-.23-.32-.23-.09,0,3.74-1.66,6.77-3.72,6.77s-3.66-2.94-3.71-6.61C41.1,65.11,41.44,65.15,41.79,65.15Z"/>
            <path class="cls-8" d="M50.72,64.93a48.06,48.06,0,0,1-8.11.6,47,47,0,0,1-8.1-.6,49.08,49.08,0,0,1,8.1-.6A49.12,49.12,0,0,1,50.72,64.93Z"/>
          </g>
          <g>
            <path class="cls-8" d="M72.65,64.53A25.57,25.57,0,0,0,79.42,64c0,.22-.36.06-.36.29,0,3.74-1.67,6.77-3.72,6.77s-3.67-2.95-3.72-6.61C72,64.49,72.3,64.53,72.65,64.53Z"/>
            <path class="cls-8" d="M81.58,64.31a49.08,49.08,0,0,1-8.1.6,48.14,48.14,0,0,1-8.11-.6,48.14,48.14,0,0,1,8.11-.6A48,48,0,0,1,81.58,64.31Z"/>
          </g>
        </g>
        <path class="cls-4" d="M87.42,30s.71-29.5-32-30c-35.19-.53-35,15-35,15S2.15,20.55,2.15,39.88c0,7.3,2.73,14.87,6.26,24.16a7.85,7.85,0,0,1,4.89,3L15,74.2h4.8c0-.21,0-3.38,0-3.6V51.28c-.25-1.05-.42-6,4.06-8.21C27.12,41.42,26.42,31,26.42,27,43.71,16.71,71.42,13,87.42,30Z"/>
      </g>
    </g>
  </g>
</svg>
